<svg width="375" height="376" viewBox="0 0 375 376" fill="none" xmlns="http://www.w3.org/2000/svg">
<path d="M169.385 16.196C180.827 9.60134 194.923 9.60134 206.365 16.196L329.51 87.1749C340.952 93.7695 348 105.957 348 119.146V261.104C348 274.293 340.952 286.481 329.51 293.075L206.365 364.054C194.923 370.649 180.827 370.649 169.385 364.054L46.2396 293.075C34.7982 286.481 27.75 274.293 27.75 261.104V119.146C27.75 105.957 34.7982 93.7695 46.2396 87.1749L169.385 16.196Z" fill="#FDFEFF"/>
<path fill-rule="evenodd" clip-rule="evenodd" d="M168.101 5.19482C180.105 -1.73161 194.895 -1.73161 206.899 5.19482L336.101 79.745C348.105 86.6714 355.5 99.472 355.5 113.325V262.425C355.5 276.278 348.105 289.079 336.101 296.005L206.899 370.555C194.895 377.482 180.105 377.482 168.101 370.555L38.899 296.005C26.8948 289.079 19.5 276.278 19.5 262.425V113.325C19.5 99.472 26.8948 86.6714 38.899 79.745L168.101 5.19482ZM109.649 106.082L187.5 61.1613L265.351 106.082L187.5 241.071L109.649 106.082ZM77.6969 148.394V251.232L166.585 302.521L77.6969 148.394ZM208.415 302.521L297.303 251.232V148.394L208.415 302.521Z" fill="url(#paint0_linear_123_23)"/>
<defs>
<linearGradient id="paint0_linear_123_23" x1="187.5" y1="0" x2="187.5" y2="375.75" gradientUnits="userSpaceOnUse">
<stop stop-color="#3261BF"/>
<stop offset="1" stop-color="#363795"/>
</linearGradient>
</defs>
</svg>
